<?xml version="1.0" encoding="utf-8"?>
<!-- Generator: Adobe Illustrator 28.3.0, SVG Export Plug-In . SVG Version: 6.00 Build 0)  -->
<svg version="1.1" id="Layer_1" xmlns="http://www.w3.org/2000/svg" xmlns:xlink="http://www.w3.org/1999/xlink" x="0px" y="0px"
	 viewBox="0 0 570.7 737.3" style="enable-background:new 0 0 570.7 737.3;" xml:space="preserve">
<style type="text/css">
	.st0{fill:#808080;}
</style>
<path class="st0" d="M239.4,11.1c-13.8,0.2-24.8,11.5-24.6,25.3c0,33.3-11.5,38.8-32.3,55.5s-51,44.5-51,94.5
	c-0.2,13.8,10.8,25.2,24.6,25.4c13.8,0.2,25.2-10.8,25.4-24.6c0-0.2,0-0.5,0-0.7c0-33.3,11.4-38.8,32.3-55.5s51.1-44.5,51.1-94.5
	c0.2-13.8-10.9-25.1-24.7-25.3C239.8,11.1,239.6,11.1,239.4,11.1z M339.4,44.5c-13.8,0.2-24.8,11.5-24.6,25.3
	c0,12.5-2.5,17.7-5.9,22.6s-9.1,9.5-17.5,15.8c-8.3,6.2-19.3,14-28.4,26.9s-15,30.6-15,51.4c-0.2,13.8,10.8,25.2,24.6,25.4
	c13.8,0.2,25.2-10.8,25.4-24.6c0-0.2,0-0.5,0-0.7c0-12.5,2.4-17.7,5.8-22.6c3.4-4.8,9.1-9.5,17.5-15.8c8.3-6.3,19.3-14.1,28.4-27
	c9.1-12.9,15-30.6,15-51.4c0.2-13.8-10.9-25.1-24.7-25.3C339.8,44.5,339.6,44.5,339.4,44.5z M58.3,244.8c-16.2,0-31.8,6.8-42.8,18.7
	c-11,11.9-16.6,28-15.4,44.1l23.4,305.1c5,64.7,59.7,115.4,124.6,115.4h131.5c64.9,0,119.7-50.7,124.6-115.4l0.1-1.2h35.3
	c68.7,0,125-56.3,125-125v-83.3c0-31.9-26.4-58.3-58.3-58.3h-81.5l2.9-37.2c1.2-16.1-4.3-32.2-15.3-44.1
	c-11-11.9-26.6-18.7-42.8-18.7H58.3z M421.1,394.8h85.3c4.9,0,8.3,3.4,8.3,8.3v83.3c0,41.7-33.3,75-75,75h-31.4L421.1,394.8z"/>
</svg>
